static pose
version=1
nRows=1
nColumns=71
inDegrees=no
endheader
time	/jointset/ground_thorax/thorax_tilt/value	/jointset/ground_thorax/thorax_tilt/speed	/jointset/ground_thorax/thorax_list/value	/jointset/ground_thorax/thorax_list/speed	/jointset/ground_thorax/thorax_rotation/value	/jointset/ground_thorax/thorax_rotation/speed	/jointset/ground_thorax/thorax_tx/value	/jointset/ground_thorax/thorax_tx/speed	/jointset/ground_thorax/thorax_ty/value	/jointset/ground_thorax/thorax_ty/speed	/jointset/ground_thorax/thorax_tz/value	/jointset/ground_thorax/thorax_tz/speed	/jointset/sternoclavicular/sternoclavicular_r2/value	/jointset/sternoclavicular/sternoclavicular_r2/speed	/jointset/sternoclavicular/sternoclavicular_r3/value	/jointset/sternoclavicular/sternoclavicular_r3/speed	/jointset/unrotscap/unrotscap_r3/value	/jointset/unrotscap/unrotscap_r3/speed	/jointset/unrotscap/unrotscap_r2/value	/jointset/unrotscap/unrotscap_r2/speed	/jointset/acromioclavicular/acromioclavicular_r2/value	/jointset/acromioclavicular/acromioclavicular_r2/speed	/jointset/acromioclavicular/acromioclavicular_r3/value	/jointset/acromioclavicular/acromioclavicular_r3/speed	/jointset/acromioclavicular/acromioclavicular_r1/value	/jointset/acromioclavicular/acromioclavicular_r1/speed	/jointset/unrothum/unrothum_r1/value	/jointset/unrothum/unrothum_r1/speed	/jointset/unrothum/unrothum_r3/value	/jointset/unrothum/unrothum_r3/speed	/jointset/unrothum/unrothum_r2/value	/jointset/unrothum/unrothum_r2/speed	/jointset/shoulder0/elv_angle/value	/jointset/shoulder0/elv_angle/speed	/jointset/shoulder1/shoulder_elv/value	/jointset/shoulder1/shoulder_elv/speed	/jointset/shoulder1/shoulder1_r2/value	/jointset/shoulder1/shoulder1_r2/speed	/jointset/shoulder2/shoulder_rot/value	/jointset/shoulder2/shoulder_rot/speed	/jointset/elbow/elbow_flexion/value	/jointset/elbow/elbow_flexion/speed	/jointset/radioulnar/pro_sup/value	/jointset/radioulnar/pro_sup/speed	/forceset/LVS/activation	/forceset/TRP1/activation	/forceset/TRP2/activation	/forceset/TRP3/activation	/forceset/TRP4/activation	/forceset/RMN/activation	/forceset/RMJ1/activation	/forceset/RMJ2/activation	/forceset/SRA1/activation	/forceset/SRA2/activation	/forceset/SRA3/activation	/forceset/SBCL/activation	/forceset/PMN/activation	/forceset/DELT1/activation	/forceset/DELT2/activation	/forceset/DELT3/activation	/forceset/SUPSP/activation	/forceset/INFSP/activation	/forceset/SUBSC/activation	/forceset/TMIN/activation	/forceset/TMAJ/activation	/forceset/PECM1/activation	/forceset/PECM2/activation	/forceset/PECM3/activation	/forceset/LAT/activation	/forceset/CORB/activation
      0.00400000	     -0.01483214	      0.00000000	     -0.06205257	      0.00000000	      0.06961342	      0.00000000	     -0.31457151	      0.00000000	      1.58749734	      0.00000000	     -0.45530841	      0.00000000	     -0.30913235	      0.00000000	      0.13093387	      0.00000000	     -0.13093387	      0.00000000	      0.30913235	      0.00000000	     -0.06259301	      0.00000000	      0.50585471	      0.00000000	      0.22737821	      0.00000000	     -0.22737821	      0.00000000	     -0.50585471	      0.00000000	      0.06259301	      0.00000000	     -0.36179097	      0.00000000	      1.27740354	      0.00000000	      0.36179097	      0.00000000	     -1.20330226	      0.00000000	      0.40120389	      0.00000000	     -0.51674710	      0.00000000	      0.05000000	      0.05000000	      0.05000000	      0.05000000	      0.05000000	      0.05000000	      0.05000000	      0.05000000	      0.05000000	      0.05000000	      0.05000000	      0.05000000	      0.05000000	      0.05000000	      0.05000000	      0.05000000	      0.05000000	      0.05000000	      0.05000000	      0.05000000	      0.05000000	      0.05000000	      0.05000000	      0.05000000	      0.05000000	      0.05000000
